<svg width="1263" height="362" viewBox="0 0 1263 362" fill="none" xmlns="http://www.w3.org/2000/svg">
<path d="M135.22 13.3373C134.642 13.8131 134.119 14.368 133.633 14.9534C128.691 20.3095 129.511 30.5135 135.004 35.859C135.025 35.883 135.047 35.907 135.069 35.9309C138.74 39.9806 141.371 44.5559 139.898 50.7588C139.727 51.456 139.517 52.1574 139.22 52.8374C139.84 52.4198 140.409 51.8979 140.936 51.3245C145.978 46.4078 144.444 36.6643 139.518 31.9056C139.491 31.8756 139.464 31.8455 139.436 31.8155C135.43 27.5425 133.137 22.1772 134.62 15.4415C134.773 14.7426 134.959 14.0339 135.22 13.3373Z" fill="url(#paint0_linear_153_694)"/>
<path d="M96.3233 0.153108C96.8211 1.31327 97.2865 2.48288 97.6924 3.66338C98.0571 4.72364 98.3735 5.79127 98.6247 6.86569C98.8489 7.82332 98.9676 8.79776 99.0901 9.74705C99.2449 10.9458 99.3206 12.1336 99.3302 13.2965C99.3586 16.2052 98.5985 18.9072 97.6611 21.4375C96.187 25.4457 93.3492 28.8974 90.0723 32.0157C89.7053 32.3655 89.3468 32.7118 88.9967 33.055C83.5033 38.765 76.8382 44.997 75.5925 54.571C75.2851 57.592 76.3015 60.4489 77.5168 62.8935C78.1032 64.0812 78.7413 65.2135 79.3499 66.3492C79.2607 65.0638 79.2767 63.7758 79.3637 62.5169C79.5399 59.8796 80.0564 57.4569 80.5367 55.3162C82.0296 48.714 88.4266 43.5977 93.8971 38.0537C94.2373 37.7201 94.5836 37.3794 94.9363 37.0315C98.7014 33.3216 101.899 28.6577 103.385 23.2355C104.345 19.7799 104.103 16.0841 103.296 12.7743C102.976 11.4334 102.518 10.1432 101.973 8.91564C101.54 7.94139 101.001 7.02647 100.482 6.12336C99.898 5.10885 99.2751 4.13463 98.6198 3.19129C97.8903 2.14108 97.1213 1.13132 96.3233 0.153108Z" fill="url(#paint1_linear_153_694)"/>
<path d="M114.708 120.194C110.144 123.004 105.579 125.814 101.015 128.624C90.768 134.933 80.5207 141.243 70.2736 147.553L65.9997 150.183L70.9114 151.213C78.2057 152.726 85.0895 155.653 90.4906 160.506C102.784 171.596 105.698 189.607 107.872 206.201C108.623 212.314 109.198 218.471 109.763 224.639C109.768 224.688 109.772 224.737 109.777 224.785C109.779 224.809 109.781 224.834 109.783 224.858C109.785 224.882 109.787 224.907 109.789 224.931C110.003 227.266 110.21 229.567 110.425 231.897C110.665 234.507 110.912 237.136 111.172 239.759C111.382 241.878 111.595 243.952 111.826 246.076C112.092 248.528 112.382 251.033 112.687 253.488C113.024 256.2 113.382 258.874 113.778 261.588L113.783 261.587C113.835 261.997 113.887 262.407 113.94 262.816C115.021 271.231 116.103 279.646 117.184 288.061C117.244 288.528 117.305 288.995 117.365 289.462C117.371 288.991 117.378 288.52 117.384 288.049L117.735 262.599C117.74 262.166 117.747 261.733 117.753 261.299L117.757 261.299C117.757 256.856 117.757 252.413 117.757 247.97C117.757 240.023 117.756 232.076 117.756 224.129C117.756 215.281 117.757 206.432 117.757 197.583L117.757 137.977C117.757 132.617 117.756 127.256 117.756 121.896L117.757 118.316L114.708 120.194Z" fill="url(#paint2_linear_153_694)"/>
<path d="M120.062 120.161L133.838 128.511C144.197 134.79 154.557 141.07 164.916 147.35L169.251 149.978L164.29 151.017C157.039 152.522 150.194 155.426 144.793 160.218C132.398 171.252 129.318 189.259 127.065 205.871C126.284 211.989 125.684 218.154 125.1 224.331C125.096 224.38 125.091 224.429 125.087 224.477C125.084 224.501 125.082 224.526 125.079 224.55C125.077 224.575 125.075 224.599 125.073 224.624C124.852 226.972 124.639 229.259 124.418 231.601C124.172 234.21 123.92 236.849 123.656 239.472C123.443 241.601 123.227 243.67 122.994 245.797C122.725 248.257 122.435 250.767 122.129 253.224C121.782 256.017 121.412 258.779 121.004 261.577L120.998 261.576C120.945 261.985 120.893 262.395 120.841 262.804C119.759 271.219 118.677 279.634 117.595 288.049C117.535 288.517 117.475 288.985 117.415 289.452C117.409 288.981 117.403 288.509 117.396 288.038C117.28 279.555 117.163 271.071 117.047 262.588C117.041 262.155 117.035 261.721 117.029 261.288L117.025 261.288C117.025 256.917 117.025 252.545 117.025 248.174C117.025 240.213 117.026 232.252 117.026 224.291C117.026 215.426 117.025 206.56 117.025 197.695C117.025 177.791 117.025 157.886 117.025 137.981C117.025 132.611 117.025 127.241 117.025 121.871L117.025 118.32L120.062 120.161Z" fill="url(#paint3_linear_153_694)"/>
<path d="M162.222 97.9456C189.934 88.4737 224.204 73.1992 251.799 95.3772C251.944 95.5287 252.088 95.681 252.23 95.8323C266.098 108.456 270.72 132.299 259.737 148.147C251.842 163.903 232.323 178.331 241.969 195.125C244.894 200.031 249.986 203.849 255.81 203.97C255.862 203.966 255.917 203.964 255.972 203.965L256.097 203.973C256.441 203.973 256.788 203.963 257.136 203.937C259.529 203.765 262.033 203.187 264.232 202.066C264.254 202.044 264.28 202.019 264.31 201.99C264.416 201.891 264.544 201.841 264.61 201.818C264.632 201.81 264.656 201.803 264.678 201.796C264.742 201.752 264.803 201.71 264.859 201.674C265.013 201.575 265.129 201.508 265.202 201.47C265.215 201.463 265.244 201.448 265.272 201.436C265.283 201.431 265.32 201.416 265.367 201.405C265.374 201.403 265.385 201.4 265.399 201.398C265.404 201.394 265.41 201.39 265.416 201.387C265.429 201.375 265.443 201.365 265.454 201.356C265.472 201.34 265.493 201.322 265.507 201.311C265.51 201.309 265.521 201.3 265.533 201.291C265.536 201.289 265.543 201.284 265.55 201.28C265.556 201.276 265.574 201.264 265.596 201.252C265.607 201.247 265.632 201.235 265.664 201.224C265.665 201.224 265.667 201.223 265.668 201.222C266.026 200.981 266.37 200.722 266.701 200.446C267.144 200.023 267.578 199.589 267.998 199.156C268.076 199.071 268.162 198.982 268.233 198.887C268.231 198.891 268.228 198.894 268.227 198.898C268.23 198.895 268.233 198.892 268.236 198.889C268.233 198.893 268.228 198.897 268.225 198.902C268.223 198.906 268.221 198.911 268.219 198.915C268.224 198.906 268.231 198.898 268.236 198.889C268.226 198.91 268.214 198.932 268.204 198.953C268.165 199.042 268.121 199.13 268.08 199.213C268.057 199.254 268.034 199.295 268.011 199.336C266.106 203.117 263.225 206.419 259.774 208.96C247.843 219.063 226.482 214.487 220.392 199.374C220.328 199.384 220.262 199.393 220.197 199.402C197.314 215.709 173.707 232.589 156.512 254.175C156.354 254.392 156.196 254.611 156.04 254.829C142.089 274.62 132.934 297.629 127.417 321.566C127.421 321.714 127.427 321.87 127.431 322.038C127.446 322.681 127.329 323.237 127.141 323.71C127.047 323.946 126.935 324.163 126.814 324.361C126.802 324.379 126.789 324.398 126.777 324.416C125.008 332.534 123.649 340.75 122.657 348.971C122.391 351.316 122.161 353.707 121.981 356.034C121.965 356.241 121.95 356.444 121.935 356.641C121.92 356.838 121.904 357.031 121.887 357.218C121.74 358.835 121.475 360.489 121.126 361.992C120.794 361.983 120.459 361.973 120.126 361.964C120.069 361.594 120.023 361.215 119.986 360.833C119.965 360.677 119.944 360.501 119.92 360.312C119.719 358.917 119.532 357.498 119.359 356.072C119.289 355.858 119.251 355.61 119.267 355.319C119.267 355.312 119.267 355.306 119.267 355.3C119.103 353.918 118.95 352.531 118.807 351.155C118.625 349.007 118.452 346.85 118.289 344.687C118.275 344.642 118.26 344.6 118.253 344.573C118.222 344.445 118.207 344.341 118.201 344.292C118.188 344.192 118.184 344.111 118.183 344.082C118.179 343.982 118.182 343.89 118.182 343.878C118.184 343.82 118.187 343.746 118.191 343.674C118.193 343.625 118.197 343.566 118.201 343.497C117.44 333.104 116.972 322.556 117.315 312.046C117.094 311.149 117.096 310.186 117.364 309.241C117.368 309.216 117.373 309.186 117.378 309.151C117.387 309.098 117.397 309.033 117.408 308.958H117.41C117.424 308.856 117.439 308.753 117.454 308.651C118.306 291.575 121.453 274.649 129.127 258.686C129.499 257.988 129.883 257.302 130.277 256.628C140.692 238.88 154.21 223.283 169.097 209.341C173.008 205.69 177.123 202.264 181.369 199.012C181.306 199.028 181.239 199.045 181.17 199.063C180.578 199.378 179.982 199.692 179.379 199.996C177.935 200.725 176.475 201.431 175.005 202.12C174.585 202.368 174.128 202.582 173.635 202.755C167.153 205.73 160.466 208.358 153.796 210.802C148.918 212.586 144.063 214.472 139.09 215.976C106.985 225.177 73.9033 233.174 39.6255 230.24C33.6114 229.452 28.1826 228.501 22.3276 226.843C14.6737 224.433 5.53765 221.521 1.1626 212.322C-2.63098 202.414 3.64634 193.911 8.68701 187.88C19.7671 175.521 33.5208 166.774 47.478 158.934C51.8242 156.542 56.2512 154.28 60.7153 152.226C56.5016 154.753 52.341 157.438 48.2612 160.21C47.7948 160.532 47.3289 160.857 46.8628 161.181C44.8886 162.675 42.9432 164.223 41.0542 165.798C39.481 167.112 37.9362 168.483 36.4507 169.876C32.1765 173.908 28.1395 178.199 24.8413 182.83C22.7799 185.761 21.0041 189.236 21.2837 192.327C21.4003 192.84 21.587 193.517 21.7974 194.253C25.6386 202.683 38.1626 204.085 47.8784 204.885C58.3605 205.518 68.9985 204.755 79.4946 203.399C100.497 200.567 121.281 195.425 140.9 187.536C143.615 186.43 146.308 185.254 148.911 184.028C165.486 176.149 181.889 167.438 196.001 155.906C209.746 145.06 222.674 126.83 213.265 110.239C213.138 109.989 213.006 109.739 212.871 109.489C202.582 93.605 178.812 98.5394 161.423 102.245C161.363 102.26 161.301 102.275 161.241 102.289C155.303 103.734 149.177 104.977 143.341 106.812C143.338 106.813 143.335 106.815 143.332 106.817C146.978 104.877 150.845 102.92 154.688 101.137C156.986 100.076 159.232 99.0959 161.572 98.175C161.691 98.1125 161.818 98.0613 161.953 98.0227C162.043 97.9968 162.133 97.971 162.222 97.9456ZM117.421 309.054C117.418 309.064 117.416 309.076 117.413 309.086C117.419 309.066 117.425 309.044 117.432 309.024H117.431C117.428 309.033 117.425 309.044 117.421 309.054ZM265.47 201.345C265.47 201.346 265.468 201.348 265.467 201.349L265.476 201.34C265.475 201.341 265.472 201.343 265.47 201.345ZM223.412 96.0911C224.29 96.7056 225.385 97.5493 226.392 98.3938C227.206 99.0761 228.039 99.8231 228.743 100.54C228.962 100.764 229.195 101.011 229.421 101.271C236.556 108.243 240.992 118.447 237.627 128.918C235.67 135.514 231.473 141.083 226.445 145.309C226.602 145.236 226.754 145.169 226.898 145.11C227.039 145.051 227.197 144.992 227.359 144.932C236.221 139.258 244.921 132.264 246.679 122.805C246.706 122.628 246.73 122.453 246.75 122.278C246.795 121.901 246.827 121.52 246.845 121.137C247.236 111.587 239.069 103.769 229.714 98.7258C229.528 98.6549 229.34 98.5687 229.157 98.4641C228.539 98.1108 226.704 97.3664 224.618 96.5569C224.221 96.403 223.813 96.2455 223.412 96.0911Z" fill="url(#paint4_radial_153_694)"/>
<path d="M119 15.4934C117.303 18.4232 116.199 21.681 115.955 24.9768C115.406 39.7595 127.158 50.7812 135.951 62.1174C138.146 64.8694 140.365 67.6913 142.285 70.761C143.555 72.8263 144.781 74.9952 145.456 77.5481C146.907 83.0501 145.598 88.9742 142.855 93.719C136.192 104.995 123.316 112.329 109.933 111.456C109.918 111.455 109.9 111.455 109.885 111.453C95.1757 109.779 84.1167 97.3085 82.493 83.6711C82.1864 79.9271 83.1073 75.9876 85.3709 72.9641C89.061 67.8359 93.3072 63.1233 96.4198 57.7151C97.6693 55.6548 98.2795 52.9599 97.4637 50.7034C97.1029 49.9938 96.6391 49.3146 96.1346 48.6653C96.0902 48.608 96.0458 48.5512 95.9998 48.4934L96.2909 48.6672C96.9643 49.0848 97.5979 49.5892 98.1913 50.1399C102.511 53.7791 103.319 60.9559 100.387 65.8772C100.361 65.9251 100.335 65.9731 100.31 66.0208C98.7964 68.9425 97.3423 71.9104 96.5682 74.9807C95.6933 78.0756 96.4475 81.0061 99.4422 82.1282C99.473 82.142 99.5047 82.1554 99.536 82.1692C102.822 83.8319 106.607 81.3098 108.602 77.8743C109.059 77.1156 109.454 76.3038 109.76 75.4475C109.674 77.024 109.99 78.6017 110.465 80.0735C111.107 82.0245 112.284 83.8646 114.021 84.6096C115.757 85.3753 117.774 85.0333 119.648 84.3313C122.796 83.2812 124.767 80.6996 124.296 77.5129C123.166 70.4554 118.103 64.1503 113.85 57.967C109.797 52.1374 109.636 44.8516 110.433 38.2844C111.264 32.076 113.082 26.0174 115.837 20.4299C116.328 19.375 116.884 18.3504 117.527 17.3909C117.966 16.7122 118.447 16.0666 119 15.4934Z" fill="url(#paint5_linear_153_694)"/>
<path d="M445.556 191.076C437.163 191.076 428.087 185.747 425.153 175.908C422.219 166.138 423.038 153.635 420.718 146.53C418.602 147.486 416.35 148.443 413.962 149.263V177.002C413.962 179.12 414.44 180.418 414.644 180.828C415.054 181.716 415.6 182.604 416.35 183.356L416.555 185.269C415.122 184.927 412.393 184.585 409.254 184.517H403.044C399.973 184.585 397.176 184.927 395.811 185.269L396.016 183.356C396.766 182.604 397.312 181.716 397.722 180.828C397.926 180.418 398.336 179.12 398.336 177.002V101.3C398.336 99.3187 398.131 98.0205 397.994 97.6106C397.585 96.7224 396.971 95.8342 396.289 95.0827L396.084 93.1013C398.063 93.6479 402.157 93.9895 406.251 93.9895C410.345 93.9895 414.44 93.6479 416.282 93.1013L416.077 95.0827C415.395 95.8342 414.781 96.7224 414.372 97.6106C414.167 98.0205 414.03 99.3187 413.962 101.3V142.772C426.04 135.53 432.045 120.362 432.045 107.039C432.045 103.896 431.704 100.89 431.021 98.0889C428.36 86.8156 421.127 82.3746 413.211 82.3746C402.362 82.3746 390.284 90.7783 387.486 101.163L385.712 99.387C387.691 82.5113 401.475 74.0393 415.805 73.9709C433.069 73.9709 449.377 86.269 449.377 106.561C449.377 118.312 443.509 131.02 431.021 140.381C436.549 145.573 439.483 154.045 442.144 162.107C445.147 170.784 448.354 183.219 459.34 184.176C456.201 188.821 451.015 191.076 445.556 191.076Z" fill="url(#paint6_linear_153_694)"/>
<path d="M483.837 187.865C480.903 187.865 477.969 187.523 475.171 186.84C460.705 183.287 454.632 172.629 454.632 163.064C454.632 153.84 460.227 145.641 469.235 145.641C470.19 145.641 471.145 145.71 472.169 145.915L473.534 147.964C471.691 151.039 470.872 155.617 470.872 160.263C470.872 165.933 472.032 171.604 474.079 174.815C476.536 178.71 480.221 180.554 483.906 180.554C490.32 180.554 496.803 174.884 496.803 165.113C496.53 159.033 494.824 154.045 488.409 149.673C478.583 143.045 463.298 137.238 459.818 121.729C459.272 119.201 458.999 116.741 458.999 114.35C458.999 98.9771 469.985 87.0206 483.974 87.0206C488.136 87.0206 492.64 88.0454 497.144 90.4367C498.509 91.1883 499.737 91.6665 500.829 91.6665C502.671 91.6665 504.241 90.2318 505.605 85.9957L507.243 86.1324C508.335 95.6293 512.566 107.586 512.566 107.586C511.61 109.225 510.382 109.909 509.017 109.909C506.083 109.909 502.603 106.766 499.873 103.486C495.984 98.9087 491.821 97.064 487.932 97.064C480.221 97.064 473.807 104.306 473.807 111.412C473.807 114.35 474.898 117.288 477.423 119.679C489.296 131.225 514.34 136.35 514.34 159.648C514.34 178.983 498.85 187.865 483.837 187.865Z" fill="url(#paint7_linear_153_694)"/>
<path d="M548.186 178.983C546.343 178.3 542.249 178.026 538.155 178.026C534.06 178.026 529.966 178.3 528.055 178.983L528.192 176.797C528.943 175.908 529.557 174.952 529.898 173.859C530.103 173.449 530.239 171.946 530.307 169.691V133.89L514.067 92.5547C513.794 91.8032 512.975 89.8901 512.361 89.2752C511.678 88.4554 510.791 87.7038 509.768 87.0206L508.949 85.3125C510.382 85.6541 513.111 85.7908 516.114 85.7908C521.846 85.7908 528.806 85.2442 530.99 84.561L531.467 86.269C530.99 87.0889 530.717 87.8405 530.649 88.7287C530.649 89.1386 530.99 90.2318 531.604 91.8715L543.341 121.797C551.734 102.598 547.367 112.232 555.76 93.3063C556.169 92.3498 556.306 91.5982 556.306 91.1883C556.238 90.3684 556.101 89.6852 555.555 88.797L556.101 87.0206C557.602 87.4305 559.377 87.6355 561.219 87.6355C563.744 87.6355 566.405 87.2939 568.93 86.6107L567.975 88.387C566.883 89.1386 565.927 89.9585 565.109 90.7783C564.767 91.2566 564.153 92.2131 563.198 94.2628L545.934 133.89V169.691C545.934 171.946 546.138 173.449 546.275 173.859C546.684 174.952 547.299 175.908 547.981 176.797L548.186 178.983Z" fill="url(#paint8_linear_153_694)"/>
<path d="M617.72 182.194C615.741 181.648 611.101 181.374 606.461 181.374C602.025 181.374 597.59 181.648 595.611 182.194L595.679 180.349C596.43 179.666 596.976 178.846 597.317 177.958C597.385 177.821 597.385 177.548 597.385 177.207C597.385 176.728 597.385 176.113 597.248 175.294C593.359 149.194 589.401 123.163 585.443 97.1324L570.226 149.877C573.502 147.828 579.234 143.387 580.735 137.716C582.782 145.71 593.495 151.244 593.495 151.244C593.495 151.244 582.782 156.778 580.735 164.772C579.165 158.691 572.615 154.114 569.544 152.2L564.221 170.784C563.812 172.424 563.607 173.585 563.607 174.132V174.337C563.88 175.157 564.358 175.977 564.972 176.66L564.836 178.505C562.925 177.958 560.741 177.685 558.558 177.685C556.306 177.685 553.986 177.958 551.939 178.505L552.621 176.66C553.508 175.977 554.327 175.157 554.941 174.337L555.214 173.859C560.195 157.051 580.667 90.0268 580.667 83.6045L580.598 83.1945C580.326 82.3746 579.848 81.5548 579.166 80.8032L579.234 78.9585C581.144 79.5051 585.512 79.7784 589.947 79.7784C594.655 79.7784 599.364 79.5051 601.274 78.9585L601.206 80.8032C599.91 82.1697 599.569 82.7163 599.569 84.0144L599.637 84.9709C600.729 96.9274 612.465 162.859 615.195 177.958H615.263C615.741 178.846 616.491 179.666 617.31 180.349L617.72 182.194Z" fill="url(#paint9_linear_153_694)"/>
<path d="M655.933 190.53C654.09 189.983 649.928 189.71 645.765 189.71C641.739 189.71 637.713 189.983 635.803 190.53L636.007 188.548C636.69 187.797 637.304 186.908 637.713 186.02C637.85 185.61 638.055 184.312 638.055 182.331V95.6293H630.139C625.226 95.6293 621.541 97.2007 619.016 103.76C617.31 108.132 615.536 111.958 610.964 111.958L610.009 111.89C609.668 111.48 609.258 110.934 608.849 110.524C610.555 107.791 611.101 100.617 611.101 94.1262C611.101 88.1138 610.623 82.5796 610.418 81.6914L612.124 81.2815C615.127 85.2442 616.014 86.3374 620.245 86.3374H671.491C675.79 86.3374 676.677 85.2442 679.68 81.2815L681.386 81.6914C681.181 82.5796 680.703 88.3187 680.703 94.4678C680.703 100.89 681.181 107.859 682.887 110.524C682.546 110.934 682.136 111.48 681.727 111.89L680.771 111.958C676.268 111.958 674.425 108.132 672.788 103.76C670.195 97.2007 666.578 95.6293 661.665 95.6293H653.749V182.331C653.749 184.312 653.886 185.61 654.09 186.02C654.432 186.908 655.046 187.797 655.796 188.548L655.933 190.53Z" fill="url(#paint10_linear_153_694)"/>
<path d="M719.803 180.896C718.984 180.896 718.029 180.828 717.142 180.691C708.135 179.325 697.831 168.051 688.619 168.051C687.39 168.051 686.162 168.256 684.934 168.735L683.637 167.71C684.797 164.84 686.435 162.927 688.346 161.697V96.1758C688.346 94.1945 688.141 92.828 688.005 92.4864C687.595 91.5982 686.981 90.71 686.299 89.8901L686.094 87.9771C688.005 88.5237 692.031 88.797 696.057 88.797H721.441C725.672 88.797 726.627 87.5672 729.493 83.8094L731.199 84.151C730.994 85.0392 730.517 90.5734 730.517 96.5858C730.517 103.076 731.063 110.25 732.768 112.983L731.54 114.35L730.517 114.418C726.013 114.418 724.239 110.524 722.601 106.219C720.008 99.6603 716.391 98.0889 711.547 98.0889H703.972V132.045C707.316 129.859 712.911 125.486 714.413 119.952C716.46 127.946 727.173 133.48 727.173 133.48C727.173 133.48 716.46 139.014 714.413 147.008C712.911 141.405 707.316 137.033 703.972 134.915V161.219C710.045 162.995 715.982 165.66 719.94 166.138C720.622 166.207 721.305 166.275 721.987 166.275C728.538 166.275 732.086 162.176 733.656 159.648L735.225 159.989C735.43 161.356 735.566 162.654 735.566 163.884C735.566 174.064 728.674 180.896 719.803 180.896Z" fill="url(#paint11_linear_153_694)"/>
<path d="M795.479 191.076C787.086 191.076 778.01 185.747 775.076 175.908C772.142 166.138 772.961 153.635 770.64 146.53C768.525 147.486 766.273 148.443 763.885 149.263V177.002C763.885 179.12 764.363 180.418 764.567 180.828C764.977 181.716 765.523 182.604 766.273 183.356L766.478 185.269C765.045 184.927 762.315 184.585 759.176 184.517H752.967C749.896 184.585 747.098 184.927 745.734 185.269L745.938 183.356C746.689 182.604 747.235 181.716 747.644 180.828C747.849 180.418 748.258 179.12 748.258 177.002V101.3C748.258 99.3187 748.054 98.0205 747.917 97.6106C747.508 96.7224 746.894 95.8342 746.211 95.0827L746.007 93.1013C747.986 93.6479 752.08 93.9895 756.174 93.9895C760.268 93.9895 764.363 93.6479 766.205 93.1013L766 95.0827C765.318 95.8342 764.704 96.7224 764.294 97.6106C764.09 98.0205 763.953 99.3187 763.885 101.3V142.772C775.963 135.53 781.968 120.362 781.968 107.039C781.968 103.896 781.627 100.89 780.944 98.0889C778.283 86.8156 771.05 82.3746 763.134 82.3746C752.284 82.3746 740.206 90.7783 737.409 101.163L735.634 99.387C737.613 82.5113 751.397 74.0393 765.727 73.9709C782.991 73.9709 799.3 86.269 799.3 106.561C799.3 118.312 793.432 131.02 780.944 140.381C786.472 145.573 789.406 154.045 792.067 162.107C795.07 170.784 798.277 183.219 809.263 184.176C806.124 188.821 800.938 191.076 795.479 191.076Z" fill="url(#paint12_linear_153_694)"/>
<path d="M871.018 182.194C869.039 181.648 864.399 181.374 859.759 181.374C855.323 181.374 850.888 181.648 848.909 182.194L848.977 180.349C849.728 179.666 850.274 178.846 850.615 177.958C850.683 177.821 850.683 177.548 850.683 177.207C850.683 176.728 850.683 176.113 850.547 175.294C846.657 149.194 842.699 123.163 838.742 97.1324L823.525 149.877C826.8 147.828 832.532 143.387 834.033 137.716C836.08 145.71 846.794 151.244 846.794 151.244C846.794 151.244 836.08 156.778 834.033 164.772C832.464 158.691 825.913 154.114 822.842 152.2L817.52 170.784C817.11 172.424 816.906 173.585 816.906 174.132V174.337C817.179 175.157 817.656 175.977 818.27 176.66L818.134 178.505C816.223 177.958 814.04 177.685 811.856 177.685C809.604 177.685 807.284 177.958 805.237 178.505L805.919 176.66C806.806 175.977 807.625 175.157 808.239 174.337L808.512 173.859C813.494 157.051 833.965 90.0268 833.965 83.6045L833.897 83.1945C833.624 82.3746 833.146 81.5548 832.464 80.8032L832.532 78.9585C834.443 79.5051 838.81 79.7784 843.245 79.7784C847.954 79.7784 852.662 79.5051 854.573 78.9585L854.505 80.8032C853.208 82.1697 852.867 82.7163 852.867 84.0144L852.935 84.9709C854.027 96.9274 865.764 162.859 868.493 177.958H868.561C869.039 178.846 869.79 179.666 870.609 180.349L871.018 182.194Z" fill="url(#paint13_linear_153_694)"/>
<path d="M381.708 192.648C379.07 191.919 372.883 191.554 366.696 191.554C360.782 191.554 354.868 191.919 352.23 192.648L352.321 190.188C353.322 189.277 354.049 188.184 354.504 187C354.595 186.817 354.595 186.453 354.595 185.997C354.595 185.36 354.595 184.54 354.413 183.447C349.227 148.648 343.95 113.94 338.673 79.2318L318.384 149.559C322.751 146.826 330.394 140.904 332.395 133.343C335.125 144.002 349.409 151.381 349.409 151.381C349.409 151.381 335.125 158.759 332.395 169.418C330.303 161.31 321.568 155.207 317.474 152.656L310.377 177.434C309.831 179.621 309.558 181.169 309.558 181.898V182.171C309.922 183.265 310.559 184.358 311.378 185.269L311.196 187.728C308.649 187 305.737 186.635 302.826 186.635C299.823 186.635 296.73 187 294 187.728L294.91 185.269C296.093 184.358 297.185 183.265 298.004 182.171L298.367 181.534C305.009 159.124 332.304 69.7577 332.304 61.1946L332.213 60.648C331.849 59.5548 331.213 58.4617 330.303 57.4596L330.394 55C332.941 55.7288 338.764 56.0932 344.678 56.0932C350.956 56.0932 357.234 55.7288 359.781 55L359.69 57.4596C357.962 59.2816 357.507 60.0103 357.507 61.7412L357.598 63.0165C359.053 78.9585 374.703 166.867 378.342 187H378.433C379.07 188.184 380.071 189.277 381.163 190.188L381.708 192.648Z" fill="url(#paint14_linear_153_694)"/>
<path d="M339.394 304.554C336.872 304.554 334.443 304.18 332.108 303.432C329.867 302.684 327.065 301.561 323.702 300.065C320.246 298.569 317.304 297.447 314.876 296.699C312.447 295.857 309.879 295.436 307.17 295.436C303.06 295.436 299.231 296.184 295.681 297.68C294.561 296.745 294 295.857 294 295.015C294 294.548 294.187 294.174 294.561 293.893C296.242 292.584 297.55 291.134 298.484 289.544C299.418 287.955 299.885 286.365 299.885 284.775V222.211C299.885 220.621 299.418 219.031 298.484 217.442C297.55 215.852 296.242 214.402 294.561 213.093C294.187 212.812 294 212.438 294 211.971C294 211.036 294.561 210.1 295.681 209.165C299.231 210.755 303.06 211.55 307.17 211.55C311.28 211.55 315.109 210.755 318.658 209.165C319.779 210.1 320.34 211.036 320.34 211.971C320.34 212.438 320.153 212.812 319.779 213.093C318.098 214.402 316.79 215.852 315.856 217.442C314.922 219.031 314.455 220.621 314.455 222.211V284.494C318.098 285.055 321.227 285.71 323.842 286.458C330.1 288.329 334.303 289.498 336.451 289.965C338.693 290.433 340.608 290.62 342.196 290.526C344.624 290.339 346.446 289.778 347.66 288.843C348.967 287.908 349.621 286.973 349.621 286.037C349.621 285.383 349.248 284.962 348.5 284.775C348.874 284.12 349.574 283.653 350.602 283.372C351.629 283.092 352.657 283.045 353.684 283.232C354.805 283.419 355.786 284.307 356.626 285.897C357.56 287.487 358.027 289.264 358.027 291.228C358.027 293.005 357.56 294.781 356.626 296.558C355.786 298.242 354.431 299.738 352.563 301.047C349.294 303.385 344.904 304.554 339.394 304.554Z" fill="url(#paint15_linear_153_694)"/>
<path d="M383.776 297.26C375.65 297.26 369.579 295.389 365.562 291.649C361.546 287.814 359.538 281.408 359.538 272.43V239.325C359.538 237.735 359.071 236.145 358.137 234.555C357.203 232.966 355.895 231.516 354.214 230.207C353.84 229.926 353.654 229.552 353.654 229.085C353.654 228.243 354.214 227.355 355.335 226.419C358.884 227.916 362.714 228.664 366.823 228.664C370.933 228.664 374.762 227.916 378.312 226.419C379.432 227.355 379.993 228.243 379.993 229.085C379.993 229.552 379.806 229.926 379.432 230.207C377.751 231.516 376.444 232.966 375.51 234.555C374.576 236.145 374.109 237.735 374.109 239.325V269.485C374.109 274.722 374.809 278.462 376.21 280.707C377.705 282.858 380.226 283.98 383.776 284.074C387.418 283.98 389.94 282.811 391.341 280.567C392.836 278.322 393.583 274.628 393.583 269.485V239.325C393.583 237.735 393.069 236.145 392.042 234.555C391.108 232.966 389.8 231.516 388.119 230.207C387.745 229.926 387.558 229.599 387.558 229.225C387.558 228.29 388.166 227.355 389.38 226.419C392.836 227.916 396.618 228.664 400.728 228.664C404.931 228.664 408.761 227.916 412.217 226.419C413.337 227.355 413.898 228.243 413.898 229.085C413.898 229.552 413.711 229.926 413.337 230.207C411.656 231.516 410.349 232.966 409.415 234.555C408.481 236.145 408.014 237.735 408.014 239.325V272.43C408.014 281.408 406.005 287.814 401.989 291.649C397.973 295.389 391.902 297.26 383.776 297.26Z" fill="url(#paint16_linear_153_694)"/>
<path d="M458.544 297.26C455.461 295.857 452.052 295.062 448.316 294.875H445.794C442.058 295.062 438.649 295.857 435.567 297.26L434.726 296.418C434.166 295.67 433.886 295.062 433.886 294.594C433.886 294.314 433.932 294.08 434.026 293.893C434.026 293.799 434.166 293.612 434.446 293.332C436.314 291.929 437.248 290.339 437.248 288.562C437.248 287.44 436.968 286.131 436.407 284.635L419.875 239.325C419.595 238.764 419.221 237.829 418.754 236.519C418.287 235.117 417.68 233.901 416.933 232.872C416.279 231.843 415.485 230.955 414.551 230.207C414.178 229.926 413.991 229.552 413.991 229.085C413.991 228.243 414.551 227.355 415.672 226.419C419.221 228.009 423.051 228.804 427.161 228.804C429.309 228.804 431.13 228.57 432.625 228.103C434.212 227.635 435.427 227.074 436.267 226.419C437.388 227.355 437.949 228.243 437.949 229.085C437.949 229.552 437.762 229.926 437.388 230.207C435.053 231.984 433.886 234.135 433.886 236.66C433.886 237.688 434.072 238.577 434.446 239.325L447.055 276.919L459.664 239.325C460.038 238.577 460.225 237.688 460.225 236.66C460.225 234.135 459.057 231.984 456.722 230.207C456.349 229.926 456.162 229.552 456.162 229.085C456.162 228.243 456.722 227.355 457.843 226.419C458.684 227.074 459.851 227.635 461.346 228.103C462.934 228.57 464.802 228.804 466.95 228.804C471.06 228.804 474.889 228.009 478.438 226.419C479.559 227.355 480.12 228.243 480.12 229.085C480.12 229.552 479.933 229.926 479.559 230.207C478.438 231.142 477.551 232.171 476.897 233.293C476.243 234.415 475.683 235.584 475.216 236.8C474.842 237.922 474.515 238.764 474.235 239.325L457.703 284.635C457.143 286.131 456.862 287.44 456.862 288.562C456.862 290.339 457.796 291.929 459.664 293.332C459.945 293.612 460.085 293.846 460.085 294.033C460.178 294.127 460.225 294.314 460.225 294.594C460.225 295.062 459.945 295.67 459.384 296.418L458.544 297.26Z" fill="url(#paint17_linear_153_694)"/>
<path d="M481.756 297.54C480.635 296.605 480.075 295.717 480.075 294.875C480.075 294.407 480.261 293.986 480.635 293.612C482.316 292.303 483.624 290.854 484.558 289.264C485.492 287.674 485.959 286.084 485.959 284.494V239.746C485.959 238.062 485.492 236.426 484.558 234.836C483.624 233.246 482.316 231.797 480.635 230.487C480.261 230.207 480.075 229.833 480.075 229.365C480.075 228.524 480.635 227.635 481.756 226.7C485.305 228.29 489.135 229.085 493.244 229.085C497.354 229.085 501.184 228.29 504.733 226.7C505.854 227.635 506.414 228.524 506.414 229.365C506.414 229.833 506.227 230.207 505.854 230.487C504.172 231.797 502.865 233.246 501.931 234.836C500.997 236.426 500.53 238.062 500.53 239.746V284.494C500.53 286.084 500.997 287.674 501.931 289.264C502.865 290.854 504.172 292.303 505.854 293.612C506.227 293.986 506.414 294.407 506.414 294.875C506.414 295.717 505.854 296.605 504.733 297.54C501.184 295.95 497.354 295.155 493.244 295.155C489.135 295.155 485.305 295.95 481.756 297.54Z" fill="url(#paint18_linear_153_694)"/>
<path d="M527.073 284.494C528.847 285.991 531.182 287.16 534.078 288.001C537.067 288.843 540.196 289.264 543.465 289.264C548.508 289.264 552.712 288.282 556.074 286.318L554.533 290.807C553.879 292.677 553.272 294.361 552.712 295.857C552.151 297.26 551.637 298.148 551.17 298.522C550.236 299.457 548.088 300.018 544.726 300.205C540.242 300.205 535.759 299.317 531.276 297.54C527.726 295.95 523.897 295.155 519.787 295.155C515.678 295.155 511.848 295.95 508.299 297.54C507.178 296.605 506.618 295.717 506.618 294.875C506.618 294.407 506.804 294.033 507.178 293.753C508.859 292.35 510.167 290.854 511.101 289.264C512.035 287.674 512.502 286.084 512.502 284.494V239.746C512.502 238.062 512.035 236.426 511.101 234.836C510.167 233.246 508.859 231.797 507.178 230.487C506.804 230.207 506.618 229.833 506.618 229.365C506.618 228.524 507.178 227.635 508.299 226.7C511.848 228.29 515.678 229.085 519.787 229.085C523.897 229.085 527.726 228.29 531.276 226.7C535.479 224.923 539.962 224.035 544.726 224.035C547.901 224.035 550.05 224.596 551.17 225.718C551.637 226.092 552.151 227.027 552.712 228.524C553.272 229.926 553.879 231.563 554.533 233.433L556.074 237.922C552.712 235.958 548.508 234.976 543.465 234.976C540.196 234.976 537.067 235.397 534.078 236.239C531.182 237.08 528.847 238.249 527.073 239.746V256.018H530.996C532.583 256.018 534.171 255.55 535.759 254.615C537.347 253.586 538.795 252.23 540.102 250.547C540.382 250.173 540.756 249.986 541.223 249.986C542.157 250.08 543.044 250.687 543.885 251.81C542.391 254.522 541.643 257.935 541.643 262.05C541.643 266.258 542.391 269.718 543.885 272.43C542.951 273.553 542.064 274.114 541.223 274.114C540.756 274.114 540.382 273.927 540.102 273.553C538.795 271.869 537.347 270.56 535.759 269.625C534.171 268.69 532.583 268.222 530.996 268.222H527.073V284.494Z" fill="url(#paint19_linear_153_694)"/>
<path d="M600.562 297.26C597.48 295.857 594.071 295.062 590.335 294.875H587.813C584.077 295.062 580.668 295.857 577.585 297.26L576.745 296.418C576.184 295.67 575.904 295.062 575.904 294.594C575.904 294.314 575.951 294.08 576.044 293.893C576.044 293.799 576.184 293.612 576.464 293.332C578.333 291.929 579.267 290.339 579.267 288.562C579.267 287.44 578.986 286.131 578.426 284.635L561.894 239.325C561.614 238.764 561.24 237.829 560.773 236.519C560.306 235.117 559.699 233.901 558.952 232.872C558.298 231.843 557.504 230.955 556.57 230.207C556.196 229.926 556.009 229.552 556.009 229.085C556.009 228.243 556.57 227.355 557.691 226.419C561.24 228.009 565.069 228.804 569.179 228.804C571.327 228.804 573.149 228.57 574.643 228.103C576.231 227.635 577.445 227.074 578.286 226.419C579.407 227.355 579.967 228.243 579.967 229.085C579.967 229.552 579.78 229.926 579.407 230.207C577.072 231.984 575.904 234.135 575.904 236.66C575.904 237.688 576.091 238.577 576.464 239.325L589.074 276.919L601.683 239.325C602.057 238.577 602.243 237.688 602.243 236.66C602.243 234.135 601.076 231.984 598.741 230.207C598.367 229.926 598.18 229.552 598.18 229.085C598.18 228.243 598.741 227.355 599.862 226.419C600.702 227.074 601.87 227.635 603.364 228.103C604.952 228.57 606.82 228.804 608.968 228.804C613.078 228.804 616.908 228.009 620.457 226.419C621.578 227.355 622.138 228.243 622.138 229.085C622.138 229.552 621.951 229.926 621.578 230.207C620.457 231.142 619.57 232.171 618.916 233.293C618.262 234.415 617.701 235.584 617.234 236.8C616.861 237.922 616.534 238.764 616.254 239.325L599.722 284.635C599.161 286.131 598.881 287.44 598.881 288.562C598.881 290.339 599.815 291.929 601.683 293.332C601.963 293.612 602.103 293.846 602.103 294.033C602.197 294.127 602.243 294.314 602.243 294.594C602.243 295.062 601.963 295.67 601.403 296.418L600.562 297.26Z" fill="url(#paint20_linear_153_694)"/>
<path d="M611.187 297.54C610.066 296.511 609.506 295.576 609.506 294.735C609.506 294.267 609.693 293.893 610.066 293.612C611.187 292.677 612.074 291.649 612.728 290.526C613.382 289.404 613.896 288.282 614.269 287.16C614.736 285.944 615.11 285.055 615.39 284.494L631.922 239.185C632.483 237.595 632.763 236.332 632.763 235.397C632.763 233.714 631.829 232.077 629.961 230.487C629.681 230.3 629.541 230.113 629.541 229.926C629.447 229.833 629.4 229.646 629.4 229.365C629.4 228.898 629.681 228.29 630.241 227.542L631.082 226.7C634.164 228.103 637.573 228.851 641.309 228.944L642.57 229.085L643.691 228.944C647.52 228.851 650.976 228.103 654.059 226.7L654.899 227.542C655.46 228.29 655.74 228.898 655.74 229.365C655.74 229.646 655.693 229.833 655.6 229.926C655.6 230.113 655.46 230.3 655.179 230.487C653.311 231.984 652.377 233.574 652.377 235.257C652.377 236.286 652.658 237.595 653.218 239.185L661.484 262.05L669.75 284.494C670.03 285.055 670.404 286.037 670.871 287.44C671.338 288.749 671.898 289.918 672.552 290.947C673.299 291.976 674.14 292.864 675.074 293.612C675.448 293.893 675.634 294.267 675.634 294.735C675.634 295.576 675.074 296.511 673.953 297.54C670.404 295.95 666.574 295.155 662.465 295.155C660.317 295.155 658.449 295.389 656.861 295.857C655.366 296.324 654.199 296.886 653.358 297.54C652.237 296.511 651.677 295.576 651.677 294.735C651.677 294.267 651.864 293.893 652.237 293.612C654.572 291.836 655.74 289.685 655.74 287.16C655.74 286.131 655.553 285.242 655.179 284.494L651.817 274.535H633.323L629.961 284.494C629.587 285.242 629.4 286.131 629.4 287.16C629.4 289.685 630.568 291.836 632.903 293.612C633.277 293.893 633.463 294.267 633.463 294.735C633.463 295.576 632.903 296.511 631.782 297.54C630.942 296.886 629.727 296.324 628.14 295.857C626.645 295.389 624.824 295.155 622.676 295.155C618.566 295.155 614.736 295.95 611.187 297.54ZM647.614 262.05L642.57 247.04L637.526 262.05H647.614Z" fill="url(#paint21_linear_153_694)"/>
<path d="M677.271 297.119C676.15 296.184 675.59 295.296 675.59 294.454C675.59 293.986 675.776 293.612 676.15 293.332C677.738 292.023 678.999 290.573 679.933 288.983C680.96 287.3 681.474 285.663 681.474 284.074V239.325C681.474 237.642 681.007 236.005 680.073 234.415C679.139 232.825 677.831 231.376 676.15 230.067C675.776 229.786 675.59 229.412 675.59 228.944C675.59 228.103 676.15 227.214 677.271 226.279C680.82 227.869 684.65 228.664 688.759 228.664C690.721 228.57 693.196 228.103 696.185 227.261C699.547 226.326 702.209 225.811 704.171 225.718H705.011C711.082 225.718 715.846 228.196 719.302 233.153C722.291 237.455 723.785 242.458 723.785 248.162C723.785 252.651 722.804 256.953 720.843 261.068C718.881 265.183 716.079 268.549 712.437 271.168L721.684 284.074C722.524 285.57 723.598 286.832 724.906 287.861C726.307 288.89 727.988 289.965 729.95 291.087C731.631 291.929 732.845 292.677 733.592 293.332C733.966 293.612 734.153 293.986 734.153 294.454C734.153 295.296 733.592 296.184 732.471 297.119C728.922 295.53 725.093 294.735 720.983 294.735C716.873 294.735 713.044 295.53 709.495 297.119C708.374 296.184 707.813 295.296 707.813 294.454C707.813 293.986 708 293.612 708.374 293.332C709.495 292.303 710.055 291.274 710.055 290.246C710.055 289.404 709.775 288.469 709.214 287.44C708.654 286.318 708 285.196 707.253 284.074C704.638 280.333 702.63 277.527 701.228 275.657C699.547 275.937 697.819 276.078 696.045 276.078V284.074C696.045 285.663 696.512 287.3 697.446 288.983C698.473 290.573 699.781 292.023 701.369 293.332C701.742 293.612 701.929 293.986 701.929 294.454C701.929 295.296 701.369 296.184 700.248 297.119C696.698 295.53 692.869 294.735 688.759 294.735C684.65 294.735 680.82 295.53 677.271 297.119ZM696.045 263.874C700.154 263.874 703.61 262.237 706.412 258.964C709.214 255.597 710.615 251.763 710.615 247.461C710.615 244.188 709.868 241.523 708.374 239.465C706.879 237.408 704.871 236.379 702.349 236.379C700.388 236.379 698.333 236.987 696.185 238.203C696.091 238.39 696.045 238.764 696.045 239.325V263.874Z" fill="url(#paint22_linear_153_694)"/>
<path d="M842.475 305.957C840.047 305.302 837.525 304.414 834.91 303.292C832.388 302.263 829.492 300.533 826.223 298.101C823.982 296.511 821.226 295.717 817.957 295.717C815.809 295.717 813.754 295.997 811.793 296.558C810.672 295.53 810.112 294.594 810.112 293.753C810.112 293.285 810.298 292.911 810.672 292.63C811.139 292.256 811.886 291.695 812.914 290.947C814.034 290.105 814.875 289.311 815.435 288.562C815.996 287.721 816.276 286.786 816.276 285.757C816.276 284.822 816.183 284.074 815.996 283.512L809.971 266.819L787.415 278.042L785.453 283.512C785.36 283.793 785.313 284.167 785.313 284.635C785.313 287.066 787.135 289.731 790.777 292.63C791.151 292.911 791.338 293.285 791.338 293.753C791.338 294.594 790.777 295.53 789.657 296.558C786.107 294.968 782.278 294.174 778.168 294.174C774.058 294.174 770.229 294.968 766.68 296.558C765.559 295.623 764.998 294.688 764.998 293.753C764.998 293.285 765.185 292.911 765.559 292.63C768.081 290.667 769.855 287.627 770.883 283.512L793.439 220.949C793.439 219.359 792.972 217.769 792.038 216.179C791.104 214.589 789.797 213.14 788.115 211.83C787.742 211.55 787.555 211.176 787.555 210.708C787.555 209.867 788.115 208.978 789.236 208.043C792.785 209.539 796.615 210.287 800.725 210.287C804.834 210.287 808.664 209.539 812.213 208.043C813.334 208.978 813.894 209.867 813.894 210.708C813.894 211.176 813.708 211.55 813.334 211.83C811.653 213.14 810.345 214.589 809.411 216.179C808.477 217.769 808.01 219.359 808.01 220.949L818.658 250.407L830.567 283.512C832.154 288.001 833.369 291.228 834.209 293.192C835.143 295.062 836.451 296.792 838.132 298.382C839.907 300.065 842.195 301.187 844.997 301.748C844.997 302.777 844.717 303.759 844.157 304.694C843.69 305.723 843.129 306.144 842.475 305.957ZM806.329 256.439L800.725 241.149L792.739 263.172L806.329 256.439Z" fill="url(#paint23_linear_153_694)"/>
<path d="M876.668 225.437C884.701 225.437 890.398 228.944 893.761 235.958C897.123 242.879 898.804 251.576 898.804 262.05V262.19C898.804 272.664 897.123 281.408 893.761 288.422C890.398 295.342 884.701 298.803 876.668 298.803C874.146 298.803 871.344 298.382 868.262 297.54C864.713 295.95 860.883 295.155 856.774 295.155C852.664 295.155 848.834 295.95 845.285 297.54C844.164 296.605 843.604 295.717 843.604 294.875C843.604 294.407 843.791 294.033 844.164 293.753C845.846 292.35 847.153 290.854 848.087 289.264C849.021 287.674 849.488 286.084 849.488 284.494V239.746C849.488 238.062 849.021 236.426 848.087 234.836C847.153 233.246 845.846 231.797 844.164 230.487C843.791 230.207 843.604 229.833 843.604 229.365C843.604 228.524 844.164 227.635 845.285 226.7C848.834 228.29 852.664 229.085 856.774 229.085C860.883 229.085 864.713 228.29 868.262 226.7C871.344 225.858 874.146 225.437 876.668 225.437ZM884.234 262.05C884.234 254.381 883.206 248.49 881.151 244.375C879.097 240.26 875.314 238.156 869.803 238.062C867.935 238.062 866.067 238.249 864.199 238.624C864.106 238.811 864.059 239.185 864.059 239.746V284.494C864.059 284.962 864.106 285.336 864.199 285.617C865.974 285.991 867.748 286.178 869.523 286.178C875.127 286.178 878.957 284.12 881.011 280.005C883.16 275.797 884.234 269.859 884.234 262.19V262.05Z" fill="url(#paint24_linear_153_694)"/>
<path d="M900.423 297.54C899.302 296.605 898.742 295.717 898.742 294.875C898.742 294.407 898.929 293.986 899.302 293.612C900.984 292.303 902.291 290.854 903.225 289.264C904.159 287.674 904.626 286.084 904.626 284.494V239.746C904.626 238.062 904.159 236.426 903.225 234.836C902.291 233.246 900.984 231.797 899.302 230.487C898.929 230.207 898.742 229.833 898.742 229.365C898.742 228.524 899.302 227.635 900.423 226.7C903.973 228.29 907.802 229.085 911.912 229.085C916.021 229.085 919.851 228.29 923.4 226.7C924.521 227.635 925.081 228.524 925.081 229.365C925.081 229.833 924.895 230.207 924.521 230.487C922.84 231.797 921.532 233.246 920.598 234.836C919.664 236.426 919.197 238.016 919.197 239.605V255.878H940.493V239.746C940.493 238.062 940.026 236.426 939.092 234.836C938.158 233.246 936.85 231.797 935.169 230.487C934.795 230.207 934.608 229.833 934.608 229.365C934.608 228.524 935.169 227.635 936.29 226.7C939.839 228.29 943.668 229.085 947.778 229.085C951.888 229.085 955.717 228.29 959.267 226.7C960.387 227.635 960.948 228.524 960.948 229.365C960.948 229.833 960.761 230.207 960.387 230.487C958.706 231.797 957.399 233.246 956.465 234.836C955.531 236.426 955.064 238.062 955.064 239.746V284.494C955.064 286.084 955.531 287.674 956.465 289.264C957.399 290.854 958.706 292.303 960.387 293.612C960.761 293.986 960.948 294.407 960.948 294.875C960.948 295.717 960.387 296.605 959.267 297.54C955.717 295.95 951.888 295.155 947.778 295.155C943.668 295.155 939.839 295.95 936.29 297.54C935.169 296.605 934.608 295.717 934.608 294.875C934.608 294.407 934.795 293.986 935.169 293.612C936.85 292.303 938.158 290.854 939.092 289.264C940.026 287.674 940.493 286.084 940.493 284.494V268.362H919.197V284.494C919.197 286.084 919.664 287.674 920.598 289.264C921.532 290.854 922.84 292.303 924.521 293.612C924.895 293.986 925.081 294.407 925.081 294.875C925.081 295.717 924.521 296.605 923.4 297.54C919.851 295.95 916.021 295.155 911.912 295.155C907.802 295.155 903.973 295.95 900.423 297.54Z" fill="url(#paint25_linear_153_694)"/>
<path d="M962.813 297.54C961.692 296.605 961.132 295.717 961.132 294.875C961.132 294.407 961.319 293.986 961.692 293.612C963.373 292.303 964.681 290.854 965.615 289.264C966.549 287.674 967.016 286.084 967.016 284.494V239.746C967.016 238.062 966.549 236.426 965.615 234.836C964.681 233.246 963.373 231.797 961.692 230.487C961.319 230.207 961.132 229.833 961.132 229.365C961.132 228.524 961.692 227.635 962.813 226.7C966.362 228.29 970.192 229.085 974.301 229.085C978.411 229.085 982.241 228.29 985.79 226.7C986.911 227.635 987.471 228.524 987.471 229.365C987.471 229.833 987.284 230.207 986.911 230.487C985.229 231.797 983.922 233.246 982.988 234.836C982.054 236.426 981.587 238.062 981.587 239.746V284.494C981.587 286.084 982.054 287.674 982.988 289.264C983.922 290.854 985.229 292.303 986.911 293.612C987.284 293.986 987.471 294.407 987.471 294.875C987.471 295.717 986.911 296.605 985.79 297.54C982.241 295.95 978.411 295.155 974.301 295.155C970.192 295.155 966.362 295.95 962.813 297.54Z" fill="url(#paint26_linear_153_694)"/>
<path d="M1026.06 261.489C1028.87 263.172 1031.53 265.837 1034.05 269.485C1036.57 273.132 1037.83 277.013 1037.83 281.128C1037.83 283.372 1037.36 285.617 1036.43 287.861C1033.07 295.904 1028.26 299.925 1022 299.925C1019.2 299.925 1015.98 299.13 1012.33 297.54C1008.78 295.95 1004.95 295.155 1000.84 295.155C996.735 295.155 992.905 295.95 989.356 297.54C988.235 296.605 987.675 295.717 987.675 294.875C987.675 294.407 987.862 294.033 988.235 293.753C989.916 292.35 991.224 290.854 992.158 289.264C993.092 287.674 993.559 286.084 993.559 284.494V239.746C993.559 238.062 993.092 236.426 992.158 234.836C991.224 233.246 989.916 231.797 988.235 230.487C987.862 230.207 987.675 229.833 987.675 229.365C987.675 228.524 988.235 227.635 989.356 226.7C992.905 228.29 996.735 229.085 1000.84 229.085C1004.95 229.085 1008.78 228.29 1012.33 226.7C1013.45 226.326 1014.76 226.139 1016.26 226.139H1017.1C1022.89 226.139 1027.65 228.617 1031.39 233.574C1033.44 236.286 1034.47 239.652 1034.47 243.674C1034.47 247.414 1033.63 251.015 1031.95 254.475C1030.36 257.935 1028.4 260.273 1026.06 261.489ZM1008.13 258.262C1011.31 257.608 1014.25 256.345 1016.96 254.475C1019.66 252.605 1021.02 249.565 1021.02 245.357C1021.02 242.832 1020.32 240.821 1018.92 239.325C1017.61 237.735 1015.79 236.94 1013.45 236.94C1011.87 236.94 1010.09 237.501 1008.13 238.624V258.262ZM1017.66 287.16C1018.12 287.347 1018.73 287.44 1019.48 287.44C1021.07 287.44 1022.33 286.786 1023.26 285.476C1024.29 284.074 1024.8 282.39 1024.8 280.426C1024.8 278.088 1024.15 275.984 1022.84 274.114C1021.53 272.15 1019.62 270.887 1017.1 270.326C1016.54 270.139 1015.46 270.046 1013.87 270.046C1011.91 270.046 1010 270.139 1008.13 270.326V284.494C1011.77 285.43 1014.95 286.318 1017.66 287.16Z" fill="url(#paint27_linear_153_694)"/>
<path d="M1039.71 297.119C1038.58 296.184 1038.02 295.296 1038.02 294.454C1038.02 293.986 1038.21 293.612 1038.58 293.332C1040.17 292.023 1041.43 290.573 1042.37 288.983C1043.39 287.3 1043.91 285.663 1043.91 284.074V239.325C1043.91 237.642 1043.44 236.005 1042.51 234.415C1041.57 232.825 1040.27 231.376 1038.58 230.067C1038.21 229.786 1038.02 229.412 1038.02 228.944C1038.02 228.103 1038.58 227.214 1039.71 226.279C1043.25 227.869 1047.08 228.664 1051.19 228.664C1053.16 228.57 1055.63 228.103 1058.62 227.261C1061.98 226.326 1064.64 225.811 1066.61 225.718H1067.45C1073.52 225.718 1078.28 228.196 1081.74 233.153C1084.73 237.455 1086.22 242.458 1086.22 248.162C1086.22 252.651 1085.24 256.953 1083.28 261.068C1081.32 265.183 1078.51 268.549 1074.87 271.168L1084.12 284.074C1084.96 285.57 1086.03 286.832 1087.34 287.861C1088.74 288.89 1090.42 289.965 1092.38 291.087C1094.07 291.929 1095.28 292.677 1096.03 293.332C1096.4 293.612 1096.59 293.986 1096.59 294.454C1096.59 295.296 1096.03 296.184 1094.91 297.119C1091.36 295.53 1087.53 294.735 1083.42 294.735C1079.31 294.735 1075.48 295.53 1071.93 297.119C1070.81 296.184 1070.25 295.296 1070.25 294.454C1070.25 293.986 1070.43 293.612 1070.81 293.332C1071.93 292.303 1072.49 291.274 1072.49 290.246C1072.49 289.404 1072.21 288.469 1071.65 287.44C1071.09 286.318 1070.43 285.196 1069.69 284.074C1067.07 280.333 1065.06 277.527 1063.66 275.657C1061.98 275.937 1060.25 276.078 1058.48 276.078V284.074C1058.48 285.663 1058.95 287.3 1059.88 288.983C1060.91 290.573 1062.22 292.023 1063.8 293.332C1064.18 293.612 1064.36 293.986 1064.36 294.454C1064.36 295.296 1063.8 296.184 1062.68 297.119C1059.13 295.53 1055.3 294.735 1051.19 294.735C1047.08 294.735 1043.25 295.53 1039.71 297.119ZM1058.48 263.874C1062.59 263.874 1066.04 262.237 1068.85 258.964C1071.65 255.597 1073.05 251.763 1073.05 247.461C1073.05 244.188 1072.3 241.523 1070.81 239.465C1069.31 237.408 1067.31 236.379 1064.78 236.379C1062.82 236.379 1060.77 236.987 1058.62 238.203C1058.53 238.39 1058.48 238.764 1058.48 239.325V263.874Z" fill="url(#paint28_linear_153_694)"/>
<path d="M1098.26 297.54C1097.14 296.511 1096.58 295.576 1096.58 294.735C1096.58 294.267 1096.77 293.893 1097.14 293.612C1098.26 292.677 1099.15 291.649 1099.81 290.526C1100.46 289.404 1100.97 288.282 1101.35 287.16C1101.81 285.944 1102.19 285.055 1102.47 284.494L1119 239.185C1119.56 237.595 1119.84 236.332 1119.84 235.397C1119.84 233.714 1118.91 232.077 1117.04 230.487C1116.76 230.3 1116.62 230.113 1116.62 229.926C1116.52 229.833 1116.48 229.646 1116.48 229.365C1116.48 228.898 1116.76 228.29 1117.32 227.542L1118.16 226.7C1121.24 228.103 1124.65 228.851 1128.39 228.944L1129.65 229.085L1130.77 228.944C1134.6 228.851 1138.05 228.103 1141.14 226.7L1141.98 227.542C1142.54 228.29 1142.82 228.898 1142.82 229.365C1142.82 229.646 1142.77 229.833 1142.68 229.926C1142.68 230.113 1142.54 230.3 1142.26 230.487C1140.39 231.984 1139.45 233.574 1139.45 235.257C1139.45 236.286 1139.73 237.595 1140.3 239.185L1148.56 262.05L1156.83 284.494C1157.11 285.055 1157.48 286.037 1157.95 287.44C1158.42 288.749 1158.98 289.918 1159.63 290.947C1160.38 291.976 1161.22 292.864 1162.15 293.612C1162.52 293.893 1162.71 294.267 1162.71 294.735C1162.71 295.576 1162.15 296.511 1161.03 297.54C1157.48 295.95 1153.65 295.155 1149.54 295.155C1147.39 295.155 1145.53 295.389 1143.94 295.857C1142.44 296.324 1141.28 296.886 1140.44 297.54C1139.31 296.511 1138.75 295.576 1138.75 294.735C1138.75 294.267 1138.94 293.893 1139.31 293.612C1141.65 291.836 1142.82 289.685 1142.82 287.16C1142.82 286.131 1142.63 285.242 1142.26 284.494L1138.89 274.535H1120.4L1117.04 284.494C1116.66 285.242 1116.48 286.131 1116.48 287.16C1116.48 289.685 1117.65 291.836 1119.98 293.612C1120.35 293.893 1120.54 294.267 1120.54 294.735C1120.54 295.576 1119.98 296.511 1118.86 297.54C1118.02 296.886 1116.8 296.324 1115.22 295.857C1113.72 295.389 1111.9 295.155 1109.75 295.155C1105.64 295.155 1101.81 295.95 1098.26 297.54ZM1134.69 262.05L1129.65 247.04L1124.6 262.05H1134.69Z" fill="url(#paint29_linear_153_694)"/>
<path d="M1168.33 297.26C1167.2 296.231 1166.64 295.296 1166.64 294.454C1166.64 293.986 1166.83 293.612 1167.2 293.332C1168.89 292.023 1170.19 290.573 1171.13 288.983C1172.06 287.393 1172.53 285.804 1172.53 284.214V238.764C1168.51 237.642 1164.08 237.08 1159.22 237.08C1153.24 237.08 1149.93 238.249 1149.27 240.587C1148.9 239.933 1148.71 239.091 1148.71 238.062C1148.71 235.911 1149.6 233.48 1151.37 230.768C1153.15 227.962 1154.6 226.092 1155.72 225.157C1156.09 225.811 1159.27 226.606 1165.24 227.542C1171.22 228.383 1176.08 228.804 1179.81 228.804C1183.46 228.804 1188.27 228.383 1194.24 227.542C1200.22 226.606 1203.4 225.811 1203.77 225.157C1204.89 226.092 1206.34 227.962 1208.11 230.768C1209.89 233.48 1210.78 235.911 1210.78 238.062C1210.78 239.091 1210.59 239.933 1210.22 240.587C1209.56 238.249 1206.25 237.08 1200.27 237.08C1195.41 237.08 1190.98 237.642 1186.96 238.764V284.214C1186.96 285.804 1187.43 287.393 1188.36 288.983C1189.39 290.573 1190.74 292.023 1192.42 293.332C1192.8 293.612 1192.98 293.986 1192.98 294.454C1192.98 295.296 1192.38 296.231 1191.16 297.26C1187.71 295.67 1183.92 294.875 1179.81 294.875C1175.61 294.875 1171.78 295.67 1168.33 297.26Z" fill="url(#paint30_linear_153_694)"/>
<path d="M1198.55 297.54C1197.43 296.511 1196.87 295.576 1196.87 294.735C1196.87 294.267 1197.06 293.893 1197.43 293.612C1198.55 292.677 1199.44 291.649 1200.09 290.526C1200.75 289.404 1201.26 288.282 1201.64 287.16C1202.1 285.944 1202.48 285.055 1202.76 284.494L1219.29 239.185C1219.85 237.595 1220.13 236.332 1220.13 235.397C1220.13 233.714 1219.19 232.077 1217.33 230.487C1217.05 230.3 1216.91 230.113 1216.91 229.926C1216.81 229.833 1216.77 229.646 1216.77 229.365C1216.77 228.898 1217.05 228.29 1217.61 227.542L1218.45 226.7C1221.53 228.103 1224.94 228.851 1228.68 228.944L1229.94 229.085L1231.06 228.944C1234.89 228.851 1238.34 228.103 1241.42 226.7L1242.27 227.542C1242.83 228.29 1243.11 228.898 1243.11 229.365C1243.11 229.646 1243.06 229.833 1242.97 229.926C1242.97 230.113 1242.83 230.3 1242.55 230.487C1240.68 231.984 1239.74 233.574 1239.74 235.257C1239.74 236.286 1240.02 237.595 1240.58 239.185L1248.85 262.05L1257.12 284.494C1257.4 285.055 1257.77 286.037 1258.24 287.44C1258.7 288.749 1259.26 289.918 1259.92 290.947C1260.67 291.976 1261.51 292.864 1262.44 293.612C1262.81 293.893 1263 294.267 1263 294.735C1263 295.576 1262.44 296.511 1261.32 297.54C1257.77 295.95 1253.94 295.155 1249.83 295.155C1247.68 295.155 1245.81 295.389 1244.23 295.857C1242.73 296.324 1241.56 296.886 1240.72 297.54C1239.6 296.511 1239.04 295.576 1239.04 294.735C1239.04 294.267 1239.23 293.893 1239.6 293.612C1241.94 291.836 1243.11 289.685 1243.11 287.16C1243.11 286.131 1242.92 285.242 1242.55 284.494L1239.18 274.535H1220.69L1217.33 284.494C1216.95 285.242 1216.77 286.131 1216.77 287.16C1216.77 289.685 1217.93 291.836 1220.27 293.612C1220.64 293.893 1220.83 294.267 1220.83 294.735C1220.83 295.576 1220.27 296.511 1219.15 297.54C1218.31 296.886 1217.09 296.324 1215.51 295.857C1214.01 295.389 1212.19 295.155 1210.04 295.155C1205.93 295.155 1202.1 295.95 1198.55 297.54ZM1234.98 262.05L1229.94 247.04L1224.89 262.05H1234.98Z" fill="url(#paint31_linear_153_694)"/>
<defs>
<linearGradient id="paint0_linear_153_694" x1="134.274" y1="13.4753" x2="140.001" y2="52.7234" gradientUnits="userSpaceOnUse">
<stop stop-color="#FACCCC"/>
<stop offset="0.5" stop-color="#FFEEEE"/>
<stop offset="1" stop-color="#FACCCC"/>
</linearGradient>
<linearGradient id="paint1_linear_153_694" x1="88.4977" y1="0.409544" x2="90.6464" y2="65.979" gradientUnits="userSpaceOnUse">
<stop offset="0.158654" stop-color="#FACCCC"/>
<stop offset="0.5" stop-color="#FFEEEE"/>
<stop offset="0.836538" stop-color="#FACCCC"/>
</linearGradient>
<linearGradient id="paint2_linear_153_694" x1="92.508" y1="118.136" x2="91.2771" y2="289.276" gradientUnits="userSpaceOnUse">
<stop stop-color="#197175"/>
<stop offset="0.653846" stop-color="#092E37"/>
</linearGradient>
<linearGradient id="paint3_linear_153_694" x1="142.509" y1="118.139" x2="143.74" y2="289.264" gradientUnits="userSpaceOnUse">
<stop stop-color="#092E37"/>
<stop offset="1" stop-color="#07262D"/>
</linearGradient>
<radialGradient id="paint4_radial_153_694" cx="0" cy="0" r="1" gradientTransform="matrix(69.4995 214 -206.454 67.0147 113.998 130.468)" gradientUnits="userSpaceOnUse">
<stop offset="0.370192" stop-color="#9E2845"/>
<stop offset="0.504808" stop-color="#7B172F"/>
<stop offset="0.841346" stop-color="#440A18"/>
</radialGradient>
<linearGradient id="paint5_linear_153_694" x1="114.245" y1="15.4934" x2="114.245" y2="111.527" gradientUnits="userSpaceOnUse">
<stop offset="0.639423" stop-color="#C63657"/>
<stop offset="1" stop-color="#7B172F"/>
</linearGradient>
<linearGradient id="paint6_linear_153_694" x1="1115" y1="55" x2="409.65" y2="-44.8241" gradientUnits="userSpaceOnUse">
<stop stop-color="#186C70"/>
<stop offset="1" stop-color="#9B2742"/>
</linearGradient>
<linearGradient id="paint7_linear_153_694" x1="1115" y1="55" x2="409.65" y2="-44.8241" gradientUnits="userSpaceOnUse">
<stop stop-color="#186C70"/>
<stop offset="1" stop-color="#9B2742"/>
</linearGradient>
<linearGradient id="paint8_linear_153_694" x1="1115" y1="55" x2="409.65" y2="-44.8241" gradientUnits="userSpaceOnUse">
<stop stop-color="#186C70"/>
<stop offset="1" stop-color="#9B2742"/>
</linearGradient>
<linearGradient id="paint9_linear_153_694" x1="1115" y1="55" x2="409.65" y2="-44.8241" gradientUnits="userSpaceOnUse">
<stop stop-color="#186C70"/>
<stop offset="1" stop-color="#9B2742"/>
</linearGradient>
<linearGradient id="paint10_linear_153_694" x1="1115" y1="55" x2="409.65" y2="-44.8241" gradientUnits="userSpaceOnUse">
<stop stop-color="#186C70"/>
<stop offset="1" stop-color="#9B2742"/>
</linearGradient>
<linearGradient id="paint11_linear_153_694" x1="1115" y1="55" x2="409.65" y2="-44.8241" gradientUnits="userSpaceOnUse">
<stop stop-color="#186C70"/>
<stop offset="1" stop-color="#9B2742"/>
</linearGradient>
<linearGradient id="paint12_linear_153_694" x1="1115" y1="55" x2="409.65" y2="-44.8241" gradientUnits="userSpaceOnUse">
<stop stop-color="#186C70"/>
<stop offset="1" stop-color="#9B2742"/>
</linearGradient>
<linearGradient id="paint13_linear_153_694" x1="1115" y1="55" x2="409.65" y2="-44.8241" gradientUnits="userSpaceOnUse">
<stop stop-color="#186C70"/>
<stop offset="1" stop-color="#9B2742"/>
</linearGradient>
<linearGradient id="paint14_linear_153_694" x1="1115" y1="55" x2="409.65" y2="-44.8241" gradientUnits="userSpaceOnUse">
<stop stop-color="#186C70"/>
<stop offset="1" stop-color="#9B2742"/>
</linearGradient>
<linearGradient id="paint15_linear_153_694" x1="1115" y1="55" x2="409.65" y2="-44.8241" gradientUnits="userSpaceOnUse">
<stop stop-color="#186C70"/>
<stop offset="1" stop-color="#9B2742"/>
</linearGradient>
<linearGradient id="paint16_linear_153_694" x1="1115" y1="55" x2="409.65" y2="-44.8241" gradientUnits="userSpaceOnUse">
<stop stop-color="#186C70"/>
<stop offset="1" stop-color="#9B2742"/>
</linearGradient>
<linearGradient id="paint17_linear_153_694" x1="1115" y1="55" x2="409.65" y2="-44.8241" gradientUnits="userSpaceOnUse">
<stop stop-color="#186C70"/>
<stop offset="1" stop-color="#9B2742"/>
</linearGradient>
<linearGradient id="paint18_linear_153_694" x1="1115" y1="55" x2="409.65" y2="-44.8241" gradientUnits="userSpaceOnUse">
<stop stop-color="#186C70"/>
<stop offset="1" stop-color="#9B2742"/>
</linearGradient>
<linearGradient id="paint19_linear_153_694" x1="1115" y1="55" x2="409.65" y2="-44.8241" gradientUnits="userSpaceOnUse">
<stop stop-color="#186C70"/>
<stop offset="1" stop-color="#9B2742"/>
</linearGradient>
<linearGradient id="paint20_linear_153_694" x1="1115" y1="55" x2="409.65" y2="-44.8241" gradientUnits="userSpaceOnUse">
<stop stop-color="#186C70"/>
<stop offset="1" stop-color="#9B2742"/>
</linearGradient>
<linearGradient id="paint21_linear_153_694" x1="1115" y1="55" x2="409.65" y2="-44.8241" gradientUnits="userSpaceOnUse">
<stop stop-color="#186C70"/>
<stop offset="1" stop-color="#9B2742"/>
</linearGradient>
<linearGradient id="paint22_linear_153_694" x1="1115" y1="55" x2="409.65" y2="-44.8241" gradientUnits="userSpaceOnUse">
<stop stop-color="#186C70"/>
<stop offset="1" stop-color="#9B2742"/>
</linearGradient>
<linearGradient id="paint23_linear_153_694" x1="1115" y1="55" x2="409.65" y2="-44.8241" gradientUnits="userSpaceOnUse">
<stop stop-color="#186C70"/>
<stop offset="1" stop-color="#9B2742"/>
</linearGradient>
<linearGradient id="paint24_linear_153_694" x1="1115" y1="55" x2="409.65" y2="-44.8241" gradientUnits="userSpaceOnUse">
<stop stop-color="#186C70"/>
<stop offset="1" stop-color="#9B2742"/>
</linearGradient>
<linearGradient id="paint25_linear_153_694" x1="1115" y1="55" x2="409.65" y2="-44.8241" gradientUnits="userSpaceOnUse">
<stop stop-color="#186C70"/>
<stop offset="1" stop-color="#9B2742"/>
</linearGradient>
<linearGradient id="paint26_linear_153_694" x1="1115" y1="55" x2="409.65" y2="-44.8241" gradientUnits="userSpaceOnUse">
<stop stop-color="#186C70"/>
<stop offset="1" stop-color="#9B2742"/>
</linearGradient>
<linearGradient id="paint27_linear_153_694" x1="1115" y1="55" x2="409.65" y2="-44.8241" gradientUnits="userSpaceOnUse">
<stop stop-color="#186C70"/>
<stop offset="1" stop-color="#9B2742"/>
</linearGradient>
<linearGradient id="paint28_linear_153_694" x1="1115" y1="55" x2="409.65" y2="-44.8241" gradientUnits="userSpaceOnUse">
<stop stop-color="#186C70"/>
<stop offset="1" stop-color="#9B2742"/>
</linearGradient>
<linearGradient id="paint29_linear_153_694" x1="1115" y1="55" x2="409.65" y2="-44.8241" gradientUnits="userSpaceOnUse">
<stop stop-color="#186C70"/>
<stop offset="1" stop-color="#9B2742"/>
</linearGradient>
<linearGradient id="paint30_linear_153_694" x1="1115" y1="55" x2="409.65" y2="-44.8241" gradientUnits="userSpaceOnUse">
<stop stop-color="#186C70"/>
<stop offset="1" stop-color="#9B2742"/>
</linearGradient>
<linearGradient id="paint31_linear_153_694" x1="1115" y1="55" x2="409.65" y2="-44.8241" gradientUnits="userSpaceOnUse">
<stop stop-color="#186C70"/>
<stop offset="1" stop-color="#9B2742"/>
</linearGradient>
</defs>
</svg>
